<?xml version="1.0" encoding="UTF-8"?><svg id="Layer_2" xmlns="http://www.w3.org/2000/svg" xmlns:xlink="http://www.w3.org/1999/xlink" viewBox="0 0 619.25 128.86"><defs><style>.cls-1{fill:url(#Unbenannter_Verlauf_18-3);}.cls-2{fill:url(#Unbenannter_Verlauf_18-2);}.cls-3{fill:#001325;}.cls-4{fill:#ee3854;}.cls-5{fill:url(#Unbenannter_Verlauf_18);}</style><linearGradient id="Unbenannter_Verlauf_18" x1="64.38" y1="135.65" x2="64.38" y2="-2.91" gradientUnits="userSpaceOnUse"><stop offset="0" stop-color="#ee3854"/><stop offset="1" stop-color="#ec4441"/></linearGradient><linearGradient id="Unbenannter_Verlauf_18-2" x1="95.17" y1="135.65" x2="95.17" y2="-2.91" xlink:href="#Unbenannter_Verlauf_18"/><linearGradient id="Unbenannter_Verlauf_18-3" x1="84.38" y1="135.65" x2="84.38" y2="-2.91" xlink:href="#Unbenannter_Verlauf_18"/></defs><g id="Ebene_1"><g><path class="cls-4" d="M182.64,109.81v7.94h-5.18v-8l-8.67-14.4h5.5l5.98,9.95,5.98-9.95h5.09l-8.7,14.46Z"/><path class="cls-4" d="M203.51,116.62c-1.87-1-3.33-2.38-4.38-4.14-1.06-1.76-1.58-3.74-1.58-5.94s.53-4.18,1.58-5.94c1.06-1.76,2.52-3.14,4.38-4.14s3.96-1.5,6.29-1.5,4.42,.5,6.27,1.5,3.32,2.38,4.38,4.14c1.07,1.76,1.6,3.74,1.6,5.94s-.53,4.18-1.6,5.94c-1.07,1.76-2.53,3.14-4.38,4.14-1.86,1-3.95,1.5-6.27,1.5s-4.42-.5-6.29-1.5Zm9.87-3.82c1.07-.61,1.9-1.46,2.51-2.54,.61-1.09,.91-2.33,.91-3.71s-.3-2.62-.91-3.71-1.45-1.94-2.51-2.54c-1.07-.61-2.26-.91-3.58-.91s-2.52,.3-3.58,.91c-1.07,.61-1.9,1.46-2.51,2.54-.61,1.09-.91,2.33-.91,3.71s.3,2.62,.91,3.71c.61,1.09,1.44,1.94,2.51,2.54,1.07,.61,2.26,.91,3.58,.91s2.52-.3,3.58-.91Z"/><path class="cls-4" d="M234.84,115.47c-1.78-1.77-2.67-4.3-2.67-7.58v-12.54h5.18v12.35c0,4.01,1.66,6.02,4.99,6.02,1.62,0,2.86-.48,3.71-1.46,.85-.97,1.28-2.49,1.28-4.56v-12.35h5.12v12.54c0,3.29-.89,5.81-2.67,7.58-1.78,1.77-4.27,2.66-7.47,2.66s-5.69-.88-7.47-2.66Z"/><path class="cls-4" d="M278.25,117.74l-4.32-6.24h-4.77v6.24h-5.18v-22.4h9.7c1.98,0,3.71,.33,5.17,.99,1.46,.66,2.59,1.6,3.38,2.82,.79,1.22,1.18,2.66,1.18,4.32s-.4,3.1-1.2,4.3c-.8,1.21-1.94,2.13-3.41,2.77l5.02,7.2h-5.57Zm-1.31-17.17c-.81-.67-2-1.01-3.55-1.01h-4.22v7.81h4.22c1.56,0,2.74-.34,3.55-1.02,.81-.68,1.22-1.64,1.22-2.88s-.41-2.22-1.22-2.9Z"/><path class="cls-4" d="M314.63,99.57h-7.17v-4.22h19.52v4.22h-7.17v18.18h-5.18v-18.18Z"/><path class="cls-4" d="M349.8,112.94h-10.4l-1.98,4.8h-5.31l9.98-22.4h5.12l10.02,22.4h-5.44l-1.98-4.8Zm-1.63-3.94l-3.55-8.58-3.55,8.58h7.1Z"/><path class="cls-4" d="M368.19,117.41c-1.65-.48-2.98-1.1-3.98-1.87l1.76-3.9c.96,.7,2.1,1.27,3.42,1.7,1.32,.43,2.65,.64,3.97,.64,1.47,0,2.56-.22,3.26-.66,.7-.44,1.06-1.02,1.06-1.74,0-.53-.21-.98-.62-1.33s-.95-.63-1.6-.85c-.65-.21-1.53-.45-2.64-.7-1.71-.4-3.1-.81-4.19-1.22-1.09-.4-2.02-1.06-2.8-1.95-.78-.9-1.17-2.09-1.17-3.58,0-1.3,.35-2.48,1.06-3.54,.7-1.06,1.77-1.89,3.18-2.51,1.42-.62,3.15-.93,5.2-.93,1.43,0,2.83,.17,4.19,.51,1.36,.34,2.56,.83,3.58,1.47l-1.6,3.94c-2.07-1.17-4.14-1.76-6.21-1.76-1.45,0-2.52,.23-3.22,.7-.69,.47-1.04,1.09-1.04,1.86s.4,1.34,1.2,1.71c.8,.37,2.02,.74,3.66,1.1,1.71,.41,3.1,.81,4.19,1.22,1.09,.41,2.02,1.05,2.8,1.92,.78,.88,1.17,2.06,1.17,3.55,0,1.28-.36,2.45-1.07,3.5-.72,1.06-1.79,1.89-3.22,2.51s-3.17,.93-5.22,.93c-1.77,0-3.48-.24-5.14-.72Z"/><path class="cls-4" d="M400.94,108.94l-3.01,3.14v5.66h-5.15v-22.4h5.15v10.46l9.92-10.46h5.76l-9.28,9.98,9.82,12.42h-6.05l-7.17-8.8Z"/><path class="cls-4" d="M424.6,117.41c-1.65-.48-2.98-1.1-3.98-1.87l1.76-3.9c.96,.7,2.1,1.27,3.42,1.7,1.32,.43,2.65,.64,3.97,.64,1.47,0,2.56-.22,3.26-.66,.7-.44,1.06-1.02,1.06-1.74,0-.53-.21-.98-.62-1.33s-.95-.63-1.6-.85c-.65-.21-1.53-.45-2.64-.7-1.71-.4-3.1-.81-4.19-1.22-1.09-.4-2.02-1.06-2.8-1.95-.78-.9-1.17-2.09-1.17-3.58,0-1.3,.35-2.48,1.06-3.54,.7-1.06,1.77-1.89,3.18-2.51,1.42-.62,3.15-.93,5.2-.93,1.43,0,2.83,.17,4.19,.51,1.36,.34,2.56,.83,3.58,1.47l-1.6,3.94c-2.07-1.17-4.14-1.76-6.21-1.76-1.45,0-2.52,.23-3.22,.7-.69,.47-1.04,1.09-1.04,1.86s.4,1.34,1.2,1.71c.8,.37,2.02,.74,3.66,1.1,1.71,.41,3.1,.81,4.19,1.22,1.09,.41,2.02,1.05,2.8,1.92,.78,.88,1.17,2.06,1.17,3.55,0,1.28-.36,2.45-1.07,3.5-.72,1.06-1.79,1.89-3.22,2.51s-3.17,.93-5.22,.93c-1.77,0-3.48-.24-5.14-.72Z"/><path class="cls-4" d="M449.16,117.1c-.6-.6-.9-1.34-.9-2.24s.3-1.66,.9-2.22c.6-.56,1.33-.85,2.21-.85s1.61,.28,2.21,.85c.6,.57,.9,1.31,.9,2.22s-.3,1.64-.9,2.24c-.6,.6-1.33,.9-2.21,.9s-1.61-.3-2.21-.9Z"/><path class="cls-4" d="M480.07,95.34h10.18c2.43,0,4.58,.46,6.45,1.39,1.87,.93,3.32,2.23,4.35,3.92,1.03,1.69,1.55,3.65,1.55,5.89s-.52,4.2-1.55,5.89c-1.03,1.69-2.49,2.99-4.35,3.92-1.87,.93-4.02,1.39-6.45,1.39h-10.18v-22.4Zm9.92,18.14c2.24,0,4.03-.62,5.36-1.87,1.33-1.25,2-2.94,2-5.07s-.67-3.82-2-5.07c-1.33-1.25-3.12-1.87-5.36-1.87h-4.74v13.89h4.74Z"/><path class="cls-4" d="M517.46,116.62c-1.87-1-3.33-2.38-4.38-4.14-1.06-1.76-1.58-3.74-1.58-5.94s.53-4.18,1.58-5.94c1.06-1.76,2.52-3.14,4.38-4.14s3.96-1.5,6.29-1.5,4.42,.5,6.27,1.5,3.32,2.38,4.38,4.14c1.07,1.76,1.6,3.74,1.6,5.94s-.53,4.18-1.6,5.94c-1.07,1.76-2.53,3.14-4.38,4.14-1.86,1-3.95,1.5-6.27,1.5s-4.42-.5-6.29-1.5Zm9.87-3.82c1.07-.61,1.9-1.46,2.51-2.54,.61-1.09,.91-2.33,.91-3.71s-.3-2.62-.91-3.71-1.45-1.94-2.51-2.54c-1.07-.61-2.26-.91-3.58-.91s-2.52,.3-3.58,.91c-1.07,.61-1.9,1.46-2.51,2.54-.61,1.09-.91,2.33-.91,3.71s.3,2.62,.91,3.71c.61,1.09,1.44,1.94,2.51,2.54,1.07,.61,2.26,.91,3.58,.91s2.52-.3,3.58-.91Z"/><path class="cls-4" d="M566.86,95.34v22.4h-4.26l-11.17-13.6v13.6h-5.12v-22.4h4.29l11.14,13.6v-13.6h5.12Z"/><path class="cls-4" d="M595.91,113.58v4.16h-17.34v-22.4h16.93v4.16h-11.78v4.86h10.4v4.03h-10.4v5.18h12.19Z"/><path class="cls-4" d="M606.09,117.1c-.6-.6-.9-1.34-.9-2.24s.3-1.66,.9-2.22c.6-.56,1.33-.85,2.21-.85s1.61,.28,2.21,.85c.6,.57,.9,1.31,.9,2.22s-.3,1.64-.9,2.24c-.6,.6-1.33,.9-2.21,.9s-1.61-.3-2.21-.9Z"/></g><g><path class="cls-3" d="M182.72,33.58h-15.48v-11.3h45.15v11.3h-15.41v39.1h-14.26V33.58Z"/><path class="cls-3" d="M251.77,51.01v21.67h-12.75v-5.04c-1.94,3.74-5.83,5.69-11.52,5.69-9.36,0-14.55-5.26-14.55-12.02,0-7.2,5.26-11.67,17.35-11.67h7.78c-.22-3.96-2.88-6.19-8.28-6.19-3.74,0-7.92,1.3-10.58,3.38l-4.61-9.29c4.46-2.95,11.09-4.54,17.21-4.54,12.67,0,19.95,5.62,19.95,18Zm-13.68,9.14v-3.38h-5.9c-4.39,0-5.98,1.58-5.98,3.96s1.87,3.96,5.11,3.96c3.02,0,5.69-1.44,6.77-4.54Z"/><path class="cls-3" d="M257.31,69.3l4.1-9.36c3.6,2.23,8.86,3.6,13.61,3.6s6.12-1.01,6.12-2.66c0-5.26-23.04,.72-23.04-14.91,0-7.34,6.77-12.96,19.01-12.96,5.47,0,11.52,1.15,15.41,3.31l-4.1,9.29c-3.89-2.16-7.78-2.88-11.23-2.88-4.61,0-6.26,1.3-6.26,2.74,0,5.4,22.97-.43,22.97,15.05,0,7.2-6.62,12.82-19.3,12.82-6.62,0-13.47-1.66-17.28-4.03Z"/><path class="cls-3" d="M319.88,54.39l-5.33,5.69v12.6h-14.11V22.28h14.11v20.95l19.51-20.95h15.7l-20.59,22.32,21.67,28.08h-16.56l-14.4-18.29Z"/><path class="cls-3" d="M349.97,53.1c0-11.74,9.29-20.09,22.03-20.09s22.03,8.35,22.03,20.09-9.15,20.23-22.03,20.23-22.03-8.42-22.03-20.23Zm30.24,0c0-5.9-3.53-9.22-8.21-9.22s-8.21,3.31-8.21,9.22,3.6,9.36,8.21,9.36,8.21-3.38,8.21-9.36Z"/><path class="cls-3" d="M441.92,50.36v22.32h-13.68v-20.09c0-5.62-2.45-7.99-6.41-7.99-4.39,0-7.78,2.74-7.78,9.22v18.87h-13.68V33.65h13.03v4.25c3.1-3.24,7.49-4.9,12.39-4.9,9.15,0,16.13,5.26,16.13,17.35Z"/><path class="cls-3" d="M492.03,50.36v22.32h-13.68v-20.09c0-5.62-2.45-7.99-6.41-7.99-4.39,0-7.78,2.74-7.78,9.22v18.87h-13.68V33.65h13.03v4.25c3.1-3.24,7.49-4.9,12.39-4.9,9.15,0,16.13,5.26,16.13,17.35Z"/><path class="cls-3" d="M540.85,56.62h-28.37c1.15,3.96,4.54,6.26,9.58,6.26,3.82,0,6.34-1.08,9-3.38l7.2,7.49c-3.74,4.18-9.22,6.34-16.63,6.34-13.9,0-22.9-8.57-22.9-20.23s9.14-20.09,21.46-20.09c11.52,0,20.88,7.34,20.88,20.23,0,1.01-.14,2.3-.22,3.38Zm-28.59-7.2h15.99c-.72-4.1-3.74-6.7-7.99-6.7s-7.2,2.59-7.99,6.7Z"/><path class="cls-3" d="M544.95,53.1c0-11.74,9.29-20.09,22.39-20.09,8.86,0,15.63,3.96,18.29,10.73l-10.58,5.4c-1.87-3.67-4.61-5.26-7.78-5.26-4.75,0-8.5,3.31-8.5,9.22s3.74,9.36,8.5,9.36c3.17,0,5.9-1.58,7.78-5.26l10.58,5.4c-2.66,6.77-9.43,10.73-18.29,10.73-13.1,0-22.39-8.35-22.39-20.23Z"/><path class="cls-3" d="M618.39,71.1c-2.38,1.51-5.9,2.23-9.5,2.23-10.01,0-15.84-4.9-15.84-14.91v-13.1h-5.69v-10.23h5.69v-10.15h13.68v10.15h8.93v10.23h-8.93v12.96c0,2.88,1.66,4.46,4.1,4.46,1.51,0,3.02-.43,4.18-1.22l3.38,9.58Z"/></g><g><path class="cls-5" d="M104.85,111.28c-44.88,0-81.21-36.33-81.21-81.21,0-10.62,2.05-20.77,5.78-30.07h-6.36C10.32,0,0,10.32,0,23.06V105.8c0,12.73,10.32,23.06,23.06,23.06H105.79c12.09,0,22-9.32,22.96-21.17-7.56,2.33-15.58,3.59-23.91,3.59Z"/><g><path class="cls-2" d="M104.84,73.44c8.88,0,17.14-2.68,24.01-7.27V23.06c0-12.73-10.32-23.06-23.06-23.06h-32.12c-7.52,7.8-12.18,18.38-12.18,30.08,0,23.97,19.4,43.37,43.34,43.37Z"/><path class="cls-1" d="M104.84,84.27c-29.95,0-54.2-24.24-54.2-54.19,0-11.13,3.36-21.47,9.12-30.08h-12.47c-4.71,8.99-7.38,19.22-7.38,30.07,0,35.93,29.06,64.98,64.95,64.98,8.47,0,16.57-1.65,24-4.6v-11.79c-7.24,3.59-15.38,5.61-24.01,5.61Z"/></g></g></g></svg>