<?xml version="1.0" standalone="no"?>
<!DOCTYPE svg PUBLIC "-//W3C//DTD SVG 20010904//EN"
 "http://www.w3.org/TR/2001/REC-SVG-20010904/DTD/svg10.dtd">
<svg version="1.0" xmlns="http://www.w3.org/2000/svg"
 width="700.000000pt" height="700.000000pt" viewBox="0 0 700.000000 700.000000"
 preserveAspectRatio="xMidYMid meet">
<metadata>
Created by potrace 1.14, written by Peter Selinger 2001-2017
</metadata>
<g transform="translate(0.000000,700.000000) scale(0.100000,-0.100000)"
fill="#000000" stroke="none">
<path d="M1115 6993 c-83 -10 -240 -49 -318 -80 -79 -31 -254 -124 -267 -142
-3 -4 -21 -18 -40 -31 -60 -41 -214 -202 -267 -280 -91 -136 -174 -329 -199
-465 -4 -22 -9 -49 -12 -60 -3 -11 -7 -1098 -8 -2415 l-3 -2395 23 -110 c30
-139 57 -219 108 -320 121 -238 310 -430 547 -553 93 -49 245 -103 326 -118
22 -3 51 -9 65 -12 44 -11 4781 -12 4840 -2 177 31 267 59 400 126 234 117
438 322 559 562 29 58 88 218 97 266 18 92 24 133 24 157 l0 27 -52 -15 c-92
-25 -315 -81 -349 -87 -19 -3 -45 -8 -59 -11 -52 -10 -142 -26 -177 -31 -20
-2 -48 -6 -62 -9 -14 -2 -53 -7 -86 -10 -33 -3 -73 -8 -90 -10 -179 -24 -636
-24 -845 0 -19 3 -57 7 -85 10 -27 3 -66 8 -85 10 -19 3 -51 7 -71 10 -87 11
-316 59 -454 95 -463 120 -902 316 -1311 586 -708 468 -1271 1135 -1610 1909
-129 296 -252 697 -299 975 -19 117 -24 150 -30 195 -3 28 -8 64 -10 80 -33
233 -38 700 -10 961 23 213 58 412 110 622 30 122 72 270 92 322 3 8 7 22 9
30 2 8 21 61 43 118 l39 103 -226 -3 c-125 -1 -240 -3 -257 -5z"/>
<path d="M2531 6927 c-151 -321 -259 -651 -306 -932 -9 -55 -18 -110 -20 -121
-2 -12 -6 -46 -10 -75 -3 -30 -9 -72 -11 -94 -13 -93 -11 -582 2 -690 7 -60
16 -135 19 -165 4 -30 8 -57 10 -60 2 -3 6 -30 10 -60 4 -30 9 -58 11 -61 2
-3 6 -20 9 -37 14 -81 90 -356 115 -417 4 -11 31 -81 60 -155 220 -567 614
-1092 1109 -1478 102 -79 291 -210 365 -252 20 -11 53 -30 73 -41 205 -116
460 -224 728 -309 211 -66 539 -122 795 -136 197 -10 459 -6 560 10 14 2 52 7
85 11 226 25 535 100 777 188 l88 32 0 318 c0 322 -2 338 -35 309 -26 -23
-238 -106 -425 -167 -61 -19 -204 -55 -265 -65 -27 -5 -60 -11 -72 -14 -11 -2
-43 -7 -70 -11 -26 -4 -59 -9 -73 -11 -155 -25 -533 -24 -745 1 -33 4 -170 29
-272 49 -40 8 -206 55 -273 77 -977 320 -1740 1167 -1951 2164 -7 33 -14 65
-15 70 -8 34 -32 195 -40 266 -9 81 -11 453 -4 530 18 169 23 208 41 299 33
170 55 257 100 391 71 214 157 401 273 593 36 60 66 111 66 113 0 2 -152 3
-337 3 l-338 -1 -34 -72z"/>
<path d="M3964 6958 c-186 -198 -353 -465 -458 -730 -40 -102 -98 -287 -111
-358 -9 -47 -15 -75 -20 -100 -3 -14 -7 -49 -11 -78 -3 -29 -8 -63 -11 -75 -2
-12 -6 -105 -8 -207 -2 -173 3 -271 20 -380 4 -25 8 -54 9 -65 2 -11 6 -33 9
-50 4 -16 9 -40 12 -52 2 -13 16 -66 30 -119 139 -511 446 -957 882 -1281 40
-29 76 -53 82 -53 5 0 11 -4 13 -8 8 -21 328 -195 393 -214 11 -4 64 -22 117
-42 177 -65 321 -97 563 -126 72 -9 433 -5 495 5 188 30 183 29 275 51 75 17
286 85 344 110 111 48 218 103 309 157 l102 61 -1 1220 c0 672 -5 1248 -9
1281 -33 228 -121 438 -260 620 -21 27 -169 176 -201 201 -91 74 -327 203
-370 204 -9 0 -19 3 -23 7 -3 4 -12 8 -19 9 -7 1 -30 7 -52 12 -22 6 -53 14
-70 16 -16 3 -41 9 -55 13 -14 4 -455 9 -980 10 l-956 4 -40 -43z"/>
</g>
</svg>
